<svg width="170" height="189" viewBox="0 0 170 189" fill="none" xmlns="http://www.w3.org/2000/svg">
<path d="M107.873 1.60061L169.727 135.439C169.89 135.792 169.967 136.145 169.996 136.51C170.045 137.401 169.666 138.311 168.971 138.887C168.828 139.037 168.655 139.148 168.473 139.241L97.5012 175.263C83.2919 182.475 72.6625 187.87 72.6625 187.87C71.3142 188.554 69.6942 187.956 69.041 186.543L7.18843 52.7036C7.1172 52.55 7.06325 52.3868 7.01848 52.2205C6.89433 51.7673 6.89129 51.3002 6.9788 50.8651C7.1294 50.1517 7.53643 49.5086 8.15104 49.0853L8.22022 49.0501L8.44612 48.9136L104.256 0.283601C105.596 -0.396763 107.221 0.186568 107.873 1.60061" fill="#FF5D56"/>
<path d="M160.706 142.202L157.85 136.021L159.508 135.179C162.169 135.819 164.957 136.906 168.096 138.45L160.706 142.202Z" fill="#E15049"/>
<path d="M47.0339 136.899L7.94628 52.3184C7.89845 52.2107 7.86079 52.0955 7.82823 51.9782C7.74886 51.686 7.74072 51.3639 7.80279 51.0547C7.90861 50.5492 8.19559 50.1131 8.58531 49.8475L8.68299 49.7899L8.81325 49.71L9.80944 49.2034C12.5691 49.614 14.999 50.7764 17.3933 52.987L16.3961 53.4935C14.883 54.2592 14.248 56.1755 14.9797 57.7613L50.6941 135.041L47.0339 136.899" fill="#E15049"/>
<path d="M106.058 11.5344L161.169 130.786C161.697 131.929 161.244 133.316 160.145 133.874L73.7967 177.7C72.6977 178.258 71.378 177.771 70.8498 176.627L15.7396 57.3757C15.2074 56.224 15.6643 54.8452 16.7633 54.2885L103.112 10.4616C104.21 9.90388 105.526 10.3827 106.058 11.5344" fill="white"/>
<path d="M157.114 134.43L153.79 127.237C154.333 127.189 154.875 127.163 155.416 127.163C156.52 127.163 157.619 127.269 158.714 127.505L160.408 131.171C160.568 131.513 160.589 131.899 160.469 132.261C160.35 132.621 160.105 132.912 159.777 133.077L157.114 134.43V134.43ZM52.2119 134.27L16.4985 56.991C16.1709 56.2819 16.4548 55.4266 17.1304 55.0843L20.3968 53.4261C22.8115 54.1469 25.0277 55.6026 26.7036 57.7354C33.559 66.4638 33.5101 70.7625 57.4035 121.172C58.7091 123.923 59.9281 126.815 61.1838 129.716L52.2119 134.27" fill="#CACED7" fill-opacity="0.44"/>
<path d="M113.11 55.3091L111.582 56.0769L88.9723 67.5567L87.4551 68.3245C86.8781 68.6199 86.2452 68.6561 85.6743 68.4663L85.4769 68.3895C84.9325 68.1677 84.4695 67.738 84.1887 67.1429L83.9079 66.5393L71.7694 40.2579C71.1832 38.9899 71.6859 37.4501 72.905 36.8347L98.5496 23.8097C98.8762 23.654 99.2252 23.5677 99.562 23.5527C99.6872 23.5538 99.8134 23.5645 99.9395 23.5762C100.727 23.6988 101.443 24.2011 101.816 25.0105L114.235 51.8859C114.823 53.1635 114.318 54.6841 113.11 55.3091" fill="#5A91E4"/>
<path d="M111.582 56.0768L88.9719 67.5566C88.7216 66.839 88.5089 66.1085 88.3339 65.3844C88.1752 64.7307 88.0541 64.0738 87.9717 63.4233C87.0396 56.8841 89.2874 50.8056 94.0628 48.3849C95.2543 47.7707 96.5212 47.4358 97.8247 47.3601C98.1992 47.3313 98.5838 47.3334 98.9613 47.3569C103.594 47.5478 108.463 50.7886 111.582 56.0768" fill="#FF5D56"/>
<path d="M84.157 42.0993C85.6742 45.3817 89.4443 46.7542 92.5763 45.1642C95.7094 43.5742 97.019 39.6242 95.5018 36.3408C93.9846 33.0584 90.2156 31.6849 87.0825 33.2759C83.9495 34.8649 82.6399 38.8159 84.157 42.0993Z" fill="#FF5D56"/>
<path d="M88.972 67.5566C88.7216 66.839 88.509 66.1085 88.3339 65.3844C88.1752 64.7307 88.0541 64.0738 87.9717 63.4233C93.8705 58.3867 97.2234 52.9939 98.9614 47.3569C103.594 47.5478 108.463 50.7886 111.582 56.0768L88.972 67.5566Z" fill="#E25650"/>
<path d="M29.217 63.5572C28.3867 63.5167 27.6042 63.0133 27.2165 62.1752C26.6528 60.9552 27.1402 59.4868 28.3033 58.896L48.4337 48.6788C49.5958 48.087 50.999 48.5967 51.5637 49.8177C52.1264 51.0377 51.6411 52.5072 50.476 53.098L30.3455 63.3151C29.9822 63.4986 29.5946 63.5764 29.217 63.5572" fill="#5A91E4"/>
<path d="M46.5608 101.088C45.7294 101.045 44.9479 100.544 44.5602 99.7057C43.9965 98.4847 44.4839 97.0162 45.647 96.4254L65.7785 86.2072C66.9405 85.6164 68.3448 86.1251 68.9085 87.3472C69.4712 88.5661 68.9848 90.0356 67.8208 90.6264L47.6892 100.845C47.326 101.029 46.9373 101.106 46.5608 101.088" fill="#5A91E4"/>
<path d="M63.9042 138.617C63.0738 138.575 62.2923 138.073 61.9047 137.233C61.3409 136.014 61.8273 134.545 62.9914 133.954L83.1218 123.737C84.2839 123.143 85.6871 123.655 86.2508 124.876C86.8146 126.097 86.3282 127.565 85.1641 128.155L65.0337 138.373C64.6694 138.558 64.2817 138.634 63.9042 138.617Z" fill="#5A91E4"/>
<path d="M89.803 79.1378C88.9726 79.0972 88.1901 78.596 87.8024 77.7568C87.2387 76.5357 87.7261 75.0673 88.8902 74.4765L112.112 62.6907C113.272 62.0978 114.677 62.6075 115.241 63.8306C115.804 65.0506 115.317 66.519 114.152 67.1098L90.9314 78.8957C90.5681 79.0802 90.1805 79.157 89.803 79.1378Z" fill="#5A91E4"/>
<path d="M93.1334 86.4971C93.7388 87.8055 95.2408 88.3526 96.4904 87.7181C97.7389 87.0857 98.2609 85.5106 97.6554 84.2022C97.051 82.8937 95.5481 82.3456 94.3006 82.9801C93.051 83.6146 92.529 85.1886 93.1334 86.4971" fill="#FF5D56"/>
<path d="M100.271 100.969C100.876 102.279 102.378 102.826 103.626 102.191C104.876 101.558 105.398 99.9838 104.792 98.6743C104.188 97.3658 102.686 96.8187 101.436 97.4532C100.189 98.0867 99.6656 99.6618 100.271 100.969" fill="#FF5D56"/>
<path d="M108.302 119.32C108.908 120.63 110.411 121.176 111.658 120.543C112.908 119.909 113.429 118.334 112.825 117.025C112.22 115.717 110.717 115.17 109.469 115.803C108.22 116.438 107.699 118.013 108.302 119.32" fill="#F176BB"/>
<path d="M113.358 130.261C113.964 131.57 115.466 132.117 116.715 131.483C117.964 130.85 118.485 129.275 117.881 127.966C117.276 126.658 115.773 126.111 114.526 126.744C113.276 127.379 112.754 128.953 113.358 130.261" fill="#F176BB"/>
<path d="M86.3947 68.5835C86.1495 68.5835 85.9062 68.544 85.6732 68.4662L85.4758 68.3894C84.9314 68.1676 84.4684 67.7378 84.1876 67.1428L83.9067 66.5392C85.3873 65.5112 86.7325 64.4725 87.9709 63.4232C88.0533 64.0737 88.1744 64.7306 88.3331 65.3843C88.5082 66.1084 88.7208 66.8389 88.9712 67.5566L87.4539 68.3244C87.112 68.4992 86.7508 68.5835 86.3947 68.5835" fill="#4E80CB"/>
<path d="M111.582 56.0771C108.463 50.7889 103.594 47.5481 98.9609 47.3572C101.299 39.7676 100.729 31.7398 99.5613 23.553C99.6864 23.5541 99.8126 23.5647 99.9388 23.5765C100.726 23.6991 101.443 24.2014 101.815 25.0108L114.235 51.8862C114.4 52.2456 114.479 52.6241 114.48 52.9963C114.483 53.9486 113.977 54.8604 113.109 55.3093L111.582 56.0771Z" fill="#4E80CB"/>
<path d="M63.429 57.5771C63.2275 57.1388 62.7218 56.9565 62.3015 57.1665L33.1565 71.9607C32.7373 72.174 32.5612 72.7019 32.7637 73.1423C32.9031 73.4441 33.185 73.6254 33.4841 73.6392C33.6205 73.6456 33.7599 73.619 33.8902 73.5518L63.0372 58.7576C63.4554 58.5443 63.6315 58.0165 63.429 57.5771" fill="#161D41"/>
<path d="M68.1658 67.7187C67.9643 67.2782 67.4596 67.098 67.0394 67.3092L37.8933 82.1023C37.4741 82.3155 37.2981 82.8434 37.5005 83.2828C37.64 83.5856 37.9218 83.7658 38.221 83.7818C38.3573 83.7882 38.4967 83.7595 38.628 83.6944L67.7741 68.9002C68.1923 68.687 68.3683 68.1591 68.1658 67.7187" fill="#161D41"/>
<path d="M79.2733 93.9018C79.0708 93.4625 78.566 93.2791 78.1458 93.4913L48.9997 108.284C48.5815 108.499 48.4055 109.027 48.608 109.465C48.7474 109.768 49.0292 109.949 49.3284 109.964C49.4647 109.97 49.6042 109.943 49.7344 109.877L78.8805 95.0834C79.2997 94.8691 79.4758 94.3412 79.2733 93.9018" fill="#161D41"/>
<path d="M84.2249 103.242C84.0224 102.803 83.5198 102.619 83.0985 102.83L53.9514 117.623C53.5332 117.837 53.3572 118.364 53.5596 118.805C53.6991 119.107 53.9809 119.288 54.2801 119.302C54.4164 119.309 54.5558 119.282 54.6871 119.215L83.8321 104.421C84.2514 104.208 84.4274 103.68 84.2249 103.242Z" fill="#161D41"/>
<path d="M96.5961 129.242C96.3936 128.802 95.8889 128.62 95.4697 128.83L66.3226 143.623C65.9044 143.837 65.7284 144.366 65.9319 144.805C66.0703 145.107 66.3532 145.288 66.6523 145.302C66.7887 145.309 66.926 145.282 67.0573 145.214L96.2044 130.421C96.6236 130.208 96.7997 129.68 96.5961 129.242" fill="#161D41"/>
<path d="M99.725 136.01C99.5214 135.57 99.0167 135.39 98.5975 135.6L69.4514 150.393C69.0332 150.606 68.8572 151.134 69.0596 151.572C69.1991 151.875 69.4809 152.056 69.7801 152.071C69.9164 152.078 70.0538 152.051 70.1851 151.984L99.3321 137.191C99.7514 136.978 99.9275 136.45 99.725 136.01" fill="#161D41"/>
<path d="M101.726 142.367L72.5803 157.161C72.1621 157.374 71.9861 157.902 72.1886 158.342C72.328 158.644 72.6098 158.825 72.909 158.84C73.0453 158.847 73.1837 158.818 73.315 158.752L102.461 143.959C102.88 143.745 103.056 143.217 102.854 142.778C102.651 142.339 102.148 142.156 101.726 142.367" fill="#161D41"/>
<path d="M94.811 154.233L75.5017 164.034C75.0825 164.247 74.9064 164.775 75.1089 165.214C75.2494 165.517 75.5312 165.698 75.8294 165.713C75.9657 165.72 76.1051 165.692 76.2364 165.626L95.5457 155.825C95.9639 155.611 96.1399 155.083 95.9374 154.644C95.7349 154.204 95.2323 154.024 94.811 154.233" fill="#161D41"/>
<path d="M100.274 82.8721C100.413 83.176 100.695 83.3562 100.995 83.3712C101.131 83.3776 101.269 83.3499 101.401 83.2837L123.029 72.3051C123.448 72.0919 123.624 71.564 123.421 71.1257C123.218 70.6864 122.712 70.5029 122.294 70.7141L100.666 81.6916C100.247 81.9059 100.072 82.4338 100.274 82.8721" fill="#161D41"/>
<path d="M107.41 97.3456C107.55 97.6474 107.832 97.8286 108.131 97.8436C108.267 97.851 108.406 97.8222 108.537 97.7561L130.166 86.7786C130.584 86.5653 130.76 86.0364 130.557 85.597C130.355 85.1577 129.851 84.9775 129.43 85.1875L107.802 96.1651C107.383 96.3783 107.207 96.9062 107.41 97.3456Z" fill="#161D41"/>
<path d="M113.967 110.838C114.107 111.141 114.389 111.322 114.687 111.336C114.825 111.342 114.963 111.316 115.093 111.249L136.722 100.272C137.141 100.058 137.317 99.5299 137.114 99.0905C136.912 98.6501 136.409 98.4688 135.988 98.68L114.36 109.657C113.94 109.871 113.764 110.4 113.967 110.838" fill="#161D41"/>
<path d="M109.836 116.598C110.665 116.179 111.666 116.543 112.066 117.41C112.26 117.831 112.286 118.306 112.141 118.746C111.993 119.189 111.693 119.543 111.291 119.747C110.89 119.95 110.436 119.977 110.017 119.825C109.596 119.671 109.257 119.355 109.062 118.936C108.662 118.067 109.009 117.018 109.836 116.598V116.598ZM107.544 119.706C108.099 120.905 109.223 121.626 110.412 121.685C110.953 121.712 111.507 121.602 112.027 121.337C113.691 120.493 114.39 118.386 113.585 116.64C112.78 114.895 110.771 114.163 109.1 115.008C107.437 115.853 106.737 117.961 107.543 119.705L107.544 119.706" fill="#161D41"/>
<path d="M142.519 114.478L120.891 125.457C120.471 125.67 120.295 126.198 120.499 126.636C120.637 126.94 120.92 127.121 121.219 127.135C121.356 127.142 121.494 127.115 121.625 127.048L143.253 116.07C143.673 115.857 143.849 115.329 143.646 114.89C143.445 114.451 142.939 114.267 142.519 114.478" fill="#161D41"/>
<path d="M116.346 130.687C115.943 130.891 115.492 130.917 115.072 130.767C114.651 130.613 114.312 130.296 114.118 129.877L114.117 129.876C113.924 129.456 113.896 128.981 114.043 128.54C114.189 128.099 114.49 127.743 114.892 127.539C115.147 127.41 115.42 127.352 115.695 127.366C115.854 127.374 116.013 127.405 116.166 127.462C116.589 127.615 116.927 127.93 117.121 128.351C117.522 129.219 117.175 130.268 116.346 130.687V130.687ZM114.157 125.949C113.35 126.359 112.744 127.073 112.45 127.96C112.155 128.847 112.208 129.8 112.6 130.646C112.99 131.491 113.672 132.127 114.518 132.435C114.827 132.547 115.147 132.612 115.465 132.628C116.017 132.655 116.57 132.538 117.081 132.279C118.747 131.434 119.446 129.326 118.64 127.58C117.832 125.837 115.821 125.107 114.157 125.949Z" fill="#161D41"/>
<path d="M150.374 121.87L160.315 143.381L97.5012 175.263C83.2919 182.475 72.6625 187.869 72.6625 187.869C71.8159 188.301 70.8716 188.219 70.1176 187.764C69.6607 187.492 69.2791 187.082 69.0369 186.557L46.6343 138.083L108.558 106.653C109.88 105.981 111.406 105.888 112.779 106.388L147.21 118.925C148.595 119.429 149.738 120.493 150.374 121.87" fill="#FF5D56"/>
<path d="M71.4903 187.268C71.1616 187.268 70.8319 187.177 70.5338 186.996C70.2112 186.804 69.9558 186.519 69.7961 186.172L64.4274 174.555C69.7655 177.295 75.2024 180.025 80.7755 182.771L72.2952 187.075C72.0408 187.203 71.766 187.268 71.4903 187.268ZM90.7589 177.703C90.2613 177.064 89.6528 176.494 89.0484 176.004C88.7136 175.729 88.3676 175.469 88.0145 175.219C87.8171 175.08 87.6187 174.944 87.4172 174.81C86.8636 174.441 86.2969 174.088 85.7311 173.734L85.668 173.698L85.5785 173.644C82.886 171.972 80.2169 170.329 77.5652 168.712C77.1184 168.439 76.6738 168.169 76.2281 167.897C76.3593 167.904 76.4937 167.908 76.63 167.908C78.4983 167.908 80.8682 167.249 84.0094 165.764C92.39 161.799 99.6656 158.192 106.043 154.955C105.998 155.234 106.018 155.526 106.093 155.798C106.18 156.075 106.318 156.335 106.523 156.562L114.653 165.576L90.7589 177.703ZM71.2929 164.915C69.5406 163.862 67.7925 162.82 66.0494 161.787C62.6039 159.746 59.1737 157.742 55.7445 155.767L47.7607 138.494L50.7971 136.953C50.9925 136.941 51.1889 136.936 51.3843 136.936C55.4759 136.936 59.3986 139.36 61.2557 143.506C63.3549 148.194 65.5681 153.103 67.8993 158.24C69.1113 160.901 70.0952 163.217 71.2929 164.915ZM151.813 146.716L142.836 136.763C146.924 135.255 150.423 134.487 153.854 134.487C154.333 134.487 154.81 134.502 155.288 134.532L159.188 142.972L151.813 146.716Z" fill="#E15049"/>
<path d="M73.134 143.795C74.1587 140.083 78.75 137.606 82.2697 137.874C85.7549 138.14 87.2822 141.887 83.7157 145.255C78.8303 149.87 71.8051 148.611 73.134 143.795Z" fill="#BB7290"/>
<path d="M112.539 123.794C109.125 122.335 104.423 124.575 102.441 127.635C100.48 130.665 102.339 134.245 107.071 133.401C113.554 132.245 116.968 125.688 112.539 123.794Z" fill="#BB7290"/>
<path d="M94.8538 124.869C96.315 124.531 97.3468 125.141 97.9126 126.291C100.951 132.457 93.0517 139.063 87.5101 136.621C85.5268 135.746 82.4599 132.774 84.4289 130.396C85.4678 129.141 90.0896 125.971 94.8538 124.869" fill="white"/>
<path d="M74.1126 130.765C71.7142 132.786 72.9384 136.855 75.8354 137.417C79.4365 138.118 82.0801 133.633 79.3124 130.977C77.7402 129.467 75.5148 129.583 74.1126 130.765Z" fill="#162844"/>
<path d="M102.168 116.525C100.412 116.946 98.9459 118.703 99.1006 120.932C99.3743 124.854 104.372 125.463 106.08 122.067C107.454 119.336 105.166 115.806 102.168 116.525" fill="#162844"/>
<path d="M135.133 128.222L159.667 155.424C160.362 156.195 160.335 157.399 159.599 158.13L133.644 183.839C132.907 184.57 131.753 184.535 131.057 183.764L106.524 156.562C106.319 156.335 106.181 156.075 106.093 155.799C106.018 155.522 105.999 155.224 106.045 154.942C106.1 154.535 106.289 154.156 106.597 153.851L132.552 128.141C133.289 127.411 134.437 127.451 135.133 128.222Z" fill="#5A91E4"/>
<path d="M130.465 176.118C132.286 168.245 139.21 158.234 149.906 151.936C150.239 151.739 150.661 151.863 150.849 152.212C151.502 153.433 149.052 153.607 140.055 163.919C131.735 173.905 132.176 177.62 130.8 176.883C130.527 176.737 130.395 176.415 130.465 176.118" fill="#162844" fill-opacity="0.35"/>
<path d="M159.665 155.423L158.672 154.322L159.665 155.423Z" fill="#B7BDC8"/>
<path d="M132.386 184.365C131.901 184.365 131.417 184.163 131.056 183.763L115.868 166.922L114.653 165.576L106.523 156.561C106.318 156.334 106.18 156.074 106.092 155.798C106.962 155.634 107.836 155.548 108.707 155.548C109.069 155.548 109.429 155.563 109.787 155.593C119.868 156.389 122.073 171.091 131.877 171.83C131.256 173.304 130.782 174.743 130.465 176.117C130.395 176.415 130.527 176.737 130.8 176.883C130.912 176.942 131.011 176.973 131.105 176.973C131.79 176.973 132.136 175.348 134.364 171.717C144.033 170.104 147.819 155.168 158.249 154.346C158.395 154.338 158.534 154.324 158.673 154.322L159.666 155.424C160.003 155.797 160.171 156.273 160.17 156.746C160.169 157.25 159.978 157.753 159.598 158.129L133.643 183.839C133.288 184.191 132.837 184.365 132.386 184.365Z" fill="#4C7CC5"/>
<path d="M131.105 176.973C131.011 176.973 130.912 176.942 130.8 176.883C130.527 176.737 130.395 176.415 130.465 176.117C130.782 174.742 131.256 173.304 131.877 171.83C132.031 171.842 132.186 171.849 132.342 171.854C132.443 171.857 132.545 171.859 132.644 171.859C133.238 171.859 133.811 171.81 134.364 171.717C132.136 175.348 131.79 176.973 131.105 176.973Z" fill="#426CAC"/>
<path d="M122.474 158.413C123.453 157.401 123.127 155.689 121.925 155.004C121.594 155.182 121.263 155.648 120.97 155.87C121.135 156.154 121.423 156.344 121.521 156.668C121.608 156.949 121.48 157.224 121.262 157.399C120.924 157.586 120.555 157.379 120.277 157.126C119.634 156.528 118.478 155.132 118.46 155.055L118.418 154.921C118.422 154.766 118.558 154.604 118.656 154.467C119.171 153.918 119.598 154.621 119.995 154.946C120.403 154.666 120.757 154.397 121.019 153.985C120.261 152.225 117.874 152.308 117.009 153.979C116.912 154.143 116.841 154.31 116.81 154.49C116.786 154.824 116.852 155.154 116.996 155.486C117.07 155.685 117.184 155.897 117.354 156.042C118.731 157.611 119.405 158.344 120.059 158.999C120.86 159.727 121.908 159.151 122.474 158.413" fill="#35588E"/>
<path d="M124.362 156.379C124.442 156.123 125.151 155.775 125.254 155.414C124.8 154.723 124.103 154.165 123.561 153.451C123.771 153.121 124.029 152.863 124.343 152.65H124.356C124.988 153.193 125.579 153.978 126.245 154.528L126.251 154.522C126.457 154.275 126.908 153.899 127.17 153.529L122.457 148.69C122.163 148.942 121.752 149.389 121.59 149.698C122.239 150.362 122.712 150.884 123.252 151.599L123.245 151.605C123.038 151.85 122.79 152.178 122.511 152.345L122.505 152.352C121.846 151.849 121.337 151.186 120.66 150.607C120.328 150.786 120.096 151.233 119.771 151.446L119.758 151.46L119.75 151.466L119.758 151.475C121.05 152.965 123.577 155.622 124.362 156.379" fill="#35588E"/>
<path d="M130.471 150.302C130.287 149.94 129.976 149.596 129.677 149.307L129.665 149.294C129.062 149.932 128.441 150.437 127.839 151.033H127.826C127.597 150.825 127.221 150.464 127.017 150.138C127.042 149.964 127.565 149.595 127.774 149.237C127.451 148.893 127.2 148.53 126.862 148.254L126.854 148.246C126.567 148.518 126.286 148.809 125.994 149.06L125.979 149.058C125.685 148.861 125.475 148.499 125.215 148.227L125.216 148.213L125.238 148.192C125.788 147.538 126.493 147.042 126.952 146.329L126.946 146.322C126.642 145.985 126.379 145.594 126.027 145.304C125.989 145.261 124.241 147.045 123.233 148.153C124.625 149.885 126.15 151.402 127.651 153.067C128.606 152.272 129.534 151.216 130.471 150.302Z" fill="#35588E"/>
<path d="M127.469 146.021C128.847 147.592 129.52 148.324 130.175 148.98C130.975 149.707 132.023 149.13 132.59 148.394C133.568 147.382 133.242 145.669 132.04 144.984C131.709 145.163 131.378 145.628 131.085 145.85C131.25 146.135 131.538 146.323 131.636 146.647C131.722 146.93 131.594 147.205 131.377 147.38C131.039 147.565 130.671 147.359 130.391 147.107C129.749 146.508 128.594 145.113 128.575 145.035L128.532 144.901C128.536 144.747 128.674 144.585 128.772 144.448C129.284 143.897 129.713 144.601 130.11 144.927C130.518 144.646 130.872 144.377 131.135 143.966C130.377 142.205 127.989 142.287 127.124 143.959C127.028 144.124 126.955 144.29 126.925 144.47C126.902 144.805 126.966 145.135 127.111 145.467C127.185 145.664 127.299 145.876 127.469 146.021" fill="#35588E"/>
<path d="M135.609 145.185C135.123 144.647 134.397 143.927 133.919 143.355C134.685 143.601 135.755 144.211 136.552 144.291C136.853 144.007 137.254 143.69 137.49 143.336L134.023 141.948C133.628 140.819 133.519 139.405 133.014 138.385C132.674 138.626 132.377 139.015 132.064 139.285C132.191 140.232 132.536 141.017 132.625 141.921L132.629 141.997C132.118 141.472 131.575 140.813 131.063 140.289C130.768 140.581 130.428 140.877 130.132 141.182C131.647 142.848 133.053 144.607 134.61 146.175C134.901 145.995 135.427 145.501 135.609 145.185" fill="#35588E"/>
<path d="M125.142 164.419C124.957 164.672 124.683 164.915 124.451 165.104L124.445 165.111C124.216 164.93 123.855 164.486 123.614 164.264C123.813 163.807 124.117 163.439 124.49 163.436C124.931 163.393 125.421 163.995 125.142 164.419V164.419ZM126.346 165.007L126.34 165L126.347 164.992L126.374 164.965C126.786 164.503 126.84 163.974 126.7 163.461C126.369 161.9 124.552 161.35 123.419 162.365C122.684 162.944 122.152 163.66 121.709 164.249C122.211 164.661 126.335 169.159 126.279 169.215C126.349 169.105 127.214 168.398 127.399 167.957C127.049 167.61 126.12 166.724 125.786 166.24L125.82 166.247C126.663 166.364 127.823 166.845 128.395 167.107L128.401 167.099C128.839 166.721 129.202 166.278 129.526 165.959L129.518 165.966C128.533 165.448 127.371 165.338 126.346 165.007" fill="#35588E"/>
<path d="M131.823 161.877C131.219 162.516 130.599 163.022 129.996 163.618H129.983C129.755 163.409 129.378 163.048 129.175 162.721C129.199 162.547 129.722 162.179 129.931 161.823C129.608 161.476 129.358 161.114 129.019 160.839L129.012 160.831C128.725 161.102 128.443 161.393 128.151 161.645L128.138 161.644C127.843 161.447 127.632 161.083 127.374 160.811L127.375 160.797L127.395 160.776C127.945 160.123 128.651 159.627 129.111 158.914L129.104 158.906C128.8 158.571 128.537 158.179 128.185 157.889C128.146 157.845 126.4 159.63 125.39 160.738C126.783 162.469 128.308 163.987 129.809 165.651C130.763 164.856 131.691 163.801 132.629 162.886C132.444 162.525 132.134 162.18 131.835 161.892L131.823 161.877" fill="#35588E"/>
<path d="M133.619 157.531C132.983 157.386 132.293 157.527 131.755 157.951C131.537 158.112 131.315 158.238 131.033 158.083L130.858 157.889C130.447 157.276 131.512 156.589 131.874 157.221C132.281 156.995 132.638 156.587 132.908 156.212L132.915 156.204C132.398 155.359 131.697 155.17 131.046 155.367C130.42 155.593 129.725 156.159 129.454 156.794C128.922 158.042 129.681 159.761 131.28 159.766C131.514 159.751 131.748 159.696 131.965 159.549C132.421 159.249 133.019 158.777 133.488 159.182C134.199 159.739 133.187 160.716 132.603 160.139C132.301 160.452 131.839 160.815 131.563 161.184L131.581 161.206L131.601 161.227C132.368 162.192 133.723 161.87 134.543 161.098C135.123 160.564 135.431 159.771 135.119 158.965C134.892 158.253 134.329 157.643 133.619 157.531" fill="#35588E"/>
<path d="M135.086 151.406C134.743 151.486 134.3 152.103 134.067 152.375C135.042 153.514 136.149 154.713 137.135 155.909C137.441 156.433 136.876 157.116 136.326 156.778C135.164 155.675 134.081 154.519 133.088 153.316L133.081 153.309C132.737 153.502 132.365 153.952 132.084 154.229L132.078 154.237H132.09C133.25 155.479 134.366 156.817 135.505 158.081C136.335 158.929 137.596 158.344 138.299 157.5C138.897 156.783 138.847 155.91 138.354 155.205C137.371 153.841 136.246 152.579 135.086 151.406" fill="#35588E"/>
<path d="M138.226 147.916C137.938 148.2 137.388 148.841 137.238 148.948C137.275 149.334 137.919 150.434 137.844 150.467L137.784 150.486C137.439 150.406 136.707 149.882 136.355 149.851L136.348 149.857C136.066 150.177 135.625 150.493 135.449 150.815C138.935 154.738 139.724 155.613 139.876 155.708L139.915 155.708C140.209 155.418 140.605 155.08 140.853 154.738C139.997 153.903 139.115 153.012 138.382 152.04C138.376 152.019 139.561 152.745 139.706 152.617C139.781 152.541 139.25 151.45 139.192 151.143C140.005 151.858 141.032 153.055 141.804 153.837C142.023 153.621 142.407 153.185 142.714 152.95L140.67 150.641C139.89 149.676 139.02 148.868 138.226 147.916" fill="#35588E"/>
<path d="M145.237 148.589C144.634 149.228 144.014 149.734 143.412 150.33H143.399C143.17 150.121 142.795 149.76 142.591 149.433C142.615 149.259 143.138 148.891 143.348 148.534C143.023 148.188 142.773 147.826 142.434 147.55L142.428 147.542C142.14 147.814 141.859 148.105 141.567 148.356L141.553 148.355C141.259 148.157 141.048 147.795 140.788 147.522L140.789 147.508L140.811 147.487C141.361 146.834 142.066 146.338 142.525 145.626L142.518 145.618C142.215 145.281 141.952 144.89 141.6 144.6C141.562 144.557 139.815 146.341 138.806 147.449C140.198 149.181 141.724 150.699 143.224 152.363C144.178 151.566 145.106 150.512 146.043 149.598C145.86 149.236 145.55 148.892 145.25 148.603L145.237 148.589" fill="#35588E"/>
<path d="M37.3472 157.273L38.6791 154.634V154.632C38.6802 154.632 38.6802 154.632 38.6802 154.632L37.3472 157.273" fill="#B2168E"/>
<path d="M39.5434 161.311C39.0906 161.061 38.6388 160.812 38.187 160.561C38.5757 160.776 38.9654 160.991 39.3552 161.205C39.4183 161.24 39.4803 161.276 39.5434 161.311" fill="#B7BDC8"/>
<path d="M87.706 185.094C86.2387 185.094 84.5373 184.509 82.7729 183.721C82.2173 183.472 81.6546 183.204 81.0918 182.927C80.986 182.875 80.8812 182.823 80.7753 182.771C75.2022 180.025 69.7654 177.295 64.4272 174.555C63.605 174.134 62.7859 173.711 61.9678 173.289C54.852 169.613 47.8959 165.909 40.9947 162.107C40.5104 161.841 40.0271 161.576 39.5437 161.31C39.4806 161.275 39.4186 161.24 39.3555 161.205C39.9039 161.506 40.4514 161.808 40.9988 162.109L43.5112 157.123C43.5102 157.121 43.5102 157.121 43.5102 157.121L40.9988 162.109C53.9422 169.234 67.079 176.027 81.0908 182.926C83.4404 184.079 85.7777 185.093 87.708 185.093C87.994 185.093 88.2697 185.072 88.5363 185.024C88.2697 185.072 87.9919 185.094 87.706 185.094" fill="#01A5D2"/>
<path d="M90.3877 184.096C90.3887 184.095 90.3897 184.094 90.3907 184.093C90.3897 184.094 90.3887 184.095 90.3877 184.096ZM90.3958 184.087C90.9331 183.568 91.3768 182.825 91.7034 181.806C91.7329 181.715 91.7583 181.624 91.7807 181.535C91.7583 181.625 91.7329 181.717 91.7034 181.808C91.3768 182.826 90.9331 183.569 90.3958 184.087" fill="#2F3897"/>
<path d="M28.633 111.755L21.6414 120.081C19.4233 117.864 17.2029 115.611 14.9624 113.311C11.0254 109.287 13.4 106.165 13.8401 105.666C14.2441 105.147 16.8 102.406 21.0009 105.572C21.0903 105.636 21.1871 105.714 21.2849 105.791C22.0483 106.409 22.8053 107.013 23.5599 107.628C25.2648 109.004 26.9586 110.387 28.633 111.755" fill="#345A94"/>
<path d="M48.2887 145.587C42.1376 139.966 36.0502 134.238 29.9285 128.278C31.0789 128.155 32.2343 128.255 33.3805 128.524C38.8866 129.816 44.203 135.017 47.997 138.233C49.3016 139.332 50.5599 140.398 51.7718 141.433L51.7715 141.434L49.8718 143.7L48.2887 145.587" fill="#4C7CC5"/>
<path d="M97.2122 179.892C94.4865 184.426 90.5171 181.752 86.625 178.557C74.5558 168.634 63.3164 159.027 52.3443 149.127C51.5736 148.443 50.8146 147.749 50.0548 147.054C49.4674 146.537 48.8904 146.012 48.3148 145.476C42.1637 139.854 36.0763 134.127 29.9546 128.167C27.2087 125.49 24.4464 122.755 21.6597 119.976C19.4447 117.754 17.2242 115.502 14.9852 113.209C11.0553 109.177 13.4213 106.056 13.8638 105.551C14.2888 105.036 16.9387 102.166 21.3126 105.682C23.7988 107.674 26.2374 109.665 28.6581 111.642C38.4101 119.65 47.5776 127.565 56.5549 135.663C57.0853 136.147 57.6258 136.632 58.1572 137.116C58.9712 137.843 59.7776 138.58 60.5841 139.316C71.4463 149.261 82.0822 159.498 93.1134 170.544L93.2427 170.67C94.1898 171.623 95.1369 172.567 95.9522 173.636C97.2881 175.359 98.5114 177.722 97.2122 179.892Z" fill="#5A91E4"/>
<path d="M95.0591 176.773L100.79 181.975L100.907 182.126L102.731 185.484C102.996 185.97 102.514 186.544 102.014 186.337L98.5699 184.912L98.4099 184.81L92.679 179.607C92.4449 179.393 92.4242 179.018 92.6341 178.77L94.2546 176.839C94.4648 176.589 94.825 176.56 95.0591 176.773" fill="#345A94"/>
<path d="M56.8805 128.835L56.8679 128.844C56.4466 129.347 55.7817 129.553 55.1748 129.377C54.9396 129.311 54.7275 129.195 54.5461 129.033C53.8476 128.397 37.3346 113.514 30.5706 108.576C29.0298 107.437 27.7057 106.71 26.6581 106.408C25.1394 105.976 24.4013 106.449 23.717 107.361L23.5862 107.517C22.8317 106.902 22.0747 106.298 21.3113 105.68C21.2135 105.603 21.1167 105.525 21.0273 105.461L21.1331 105.277C21.2242 105.156 21.3129 105.045 21.4018 104.933C23.0127 103.013 25.1904 102.373 27.6777 103.087C29.6764 103.656 31.4516 104.96 32.5125 105.734C39.5046 110.858 56.5762 126.256 56.7401 126.404C57.0678 126.7 57.2723 127.12 57.2912 127.574C57.3177 128.04 57.1712 128.487 56.8805 128.835" fill="#FF5D56"/>
<path d="M60.5862 139.321L55.9347 144.846L52.3477 149.131C51.0018 147.918 49.6462 146.702 48.3132 145.478L51.7977 141.323L56.5537 135.66C57.0875 136.147 57.624 136.622 58.1554 137.119C58.9683 137.846 59.7767 138.584 60.5862 139.321Z" fill="#FF5D56"/>
<path d="M97.2126 179.89C94.4854 184.43 90.517 181.747 86.6242 178.555C74.559 168.638 63.3213 159.023 52.3476 149.131L55.9346 144.846L60.5861 139.321C71.4449 149.263 82.0871 159.495 93.1124 170.548L93.2415 170.666C94.188 171.621 95.1365 172.568 95.9524 173.634C97.2925 175.362 98.517 177.721 97.2126 179.89" fill="#5A91E4"/>
<path d="M92.5714 182.177C90.6921 181.736 88.6481 180.215 86.6241 178.556C74.5588 168.638 63.3212 159.024 52.3475 149.131L55.9325 144.85C83.8091 168.686 84.0474 170.477 88.011 171.407C88.2597 171.465 88.5217 171.52 88.8072 171.578C90.2633 171.866 91.6976 171.353 93.1107 170.546C93.1117 170.547 93.1124 170.548 93.1123 170.549L93.1882 170.617L93.2426 170.67C93.7125 171.144 94.1831 171.615 94.6371 172.099C94.8025 172.277 94.9645 172.454 95.125 172.635C95.4118 172.958 95.6882 173.29 95.952 173.636C97.2375 175.294 98.4174 177.543 97.3498 179.644C97.3075 179.726 97.2621 179.808 97.2125 179.89C96.6618 180.807 96.0601 181.429 95.4184 181.812C95.4159 181.814 95.4146 181.815 95.4122 181.817C95.4109 181.818 95.4097 181.818 95.4084 181.819C94.7784 182.192 94.1093 182.336 93.4121 182.3C93.4069 182.3 93.4007 182.3 93.3945 182.299L93.3935 182.299C93.123 182.285 92.8497 182.243 92.5714 182.177" fill="#4C7CC5"/>
<path d="M95.1256 172.635C94.9651 172.454 94.803 172.277 94.6376 172.099C94.803 172.277 94.9653 172.454 95.1256 172.635ZM93.1887 170.617L93.1128 170.549C93.113 170.548 93.1123 170.547 93.1113 170.546C93.1125 170.546 93.1137 170.545 93.1137 170.545L93.1887 170.617Z" fill="#01A5D2"/>
<path d="M48.316 145.476L48.3149 145.476L49.8981 143.589L48.316 145.476Z" fill="#01A5D2"/>
<path d="M52.3477 149.13C51.8834 148.713 51.4194 148.293 50.9543 147.875C50.6239 147.577 50.2934 147.279 49.9643 146.98C49.4135 146.481 48.8633 145.98 48.3158 145.475L49.898 143.588L51.7989 141.322C53.2411 142.548 54.6188 143.718 55.932 144.848L52.3477 149.13" fill="#E15049"/>
<path d="M50.9553 137.03C50.4052 136.902 48.6441 135.312 39.6476 127.692C30.5695 119.877 28.9115 118.168 28.9154 118.169C28.9154 118.169 28.9154 118.169 28.9161 118.17C28.7095 117.973 28.6996 117.636 28.8918 117.419C29.0227 117.271 29.2135 117.215 29.3869 117.255C29.4384 117.268 29.488 117.288 29.5346 117.316C36.0235 121.404 45.9048 129.538 51.3496 136.076C51.5437 136.308 51.5174 136.666 51.289 136.873C51.1773 136.975 51.1218 137.069 50.9553 137.03" fill="#6BA6FF"/>
</svg>
