<svg width="9" height="14" viewBox="0 0 9 14" fill="none" xmlns="http://www.w3.org/2000/svg">
<path d="M6.87508 13.25C7.03958 13.2509 7.20266 13.2194 7.35496 13.1572C7.50726 13.095 7.64578 13.0033 7.76258 12.8875C7.87974 12.7713 7.97273 12.633 8.03619 12.4807C8.09965 12.3284 8.13232 12.165 8.13232 12C8.13232 11.835 8.09965 11.6716 8.03619 11.5193C7.97273 11.3669 7.87974 11.2287 7.76258 11.1125L3.62508 6.99997L7.60008 2.86247C7.83289 2.62827 7.96357 2.31145 7.96357 1.98122C7.96357 1.65099 7.83289 1.33418 7.60008 1.09997C7.48387 0.982812 7.34562 0.889819 7.1933 0.826358C7.04097 0.762897 6.87759 0.730225 6.71258 0.730225C6.54756 0.730225 6.38418 0.762897 6.23186 0.826358C6.07953 0.889819 5.94128 0.982812 5.82508 1.09997L1.00008 6.09997C0.771044 6.33363 0.642756 6.64778 0.642756 6.97497C0.642756 7.30216 0.771044 7.61631 1.00008 7.84997L6.00008 12.85C6.11227 12.9711 6.24737 13.0689 6.39755 13.1375C6.54774 13.2062 6.71004 13.2444 6.87508 13.25V13.25Z" fill="#FF5D56"/>
</svg>
