<svg width="170" height="179" viewBox="0 0 170 179" fill="none" xmlns="http://www.w3.org/2000/svg">
<path d="M103.882 177.174C102.865 178.302 99.7775 179.149 98.0036 178.184C98.0036 178.184 43.8445 149.907 12.156 133.36C10.7058 132.611 9.78217 131.234 9.55995 129.742C9.39861 128.733 9.54739 127.672 10.0681 126.706C10.0334 126.772 71.4753 9.09698 74.8355 2.66537C76.0877 0.240345 79.0923 -0.71323 81.4932 0.572707L167.338 45.4027C169.62 46.5795 170.593 49.2818 169.631 51.6208C169.573 51.7754 169.507 51.9155 169.432 52.0604C100.263 184.583 104.473 176.656 103.882 177.174Z" fill="#5A91E4"/>
<path d="M99.9027 178.604C99.2109 178.604 98.5462 178.479 98.0042 178.183C98.0042 178.183 43.8451 149.906 12.1566 133.36C10.7064 132.61 9.78276 131.233 9.56055 129.742C10.8049 129.229 12.2522 128.997 13.8502 128.997C27.068 128.997 50.6564 144.807 55.9035 147.554C64.6162 152.12 73.3308 156.681 82.0377 161.244C85.8839 163.253 92.5262 166.455 97.9385 166.455C100.594 166.455 102.954 165.684 104.542 163.623C110.807 155.491 134.647 107.735 139.166 98.631C144.378 88.1387 153.688 65.9145 161.438 57.2086C164.014 54.3121 166.83 52.5044 169.631 51.6204C169.573 51.775 169.508 51.9151 169.432 52.06C100.264 184.583 104.474 176.656 103.882 177.173C103.177 177.956 101.473 178.604 99.9027 178.604" fill="#4C7CC5"/>
<path d="M102.975 159.776C102.413 160.836 101.098 161.189 99.9749 160.618L25.406 121.694C24.5954 121.255 24.1461 120.431 24.2002 119.596C24.2147 119.306 24.292 119.025 24.4369 118.749L24.69 118.263L25.6977 116.35L80.8974 10.6239C81.4529 9.56118 82.7939 9.14669 83.8798 9.72831L156.708 47.7432L158.455 48.6562C158.678 48.7721 158.871 48.9267 159.018 49.0861C159.681 49.7624 159.868 50.8078 159.428 51.6493L102.975 159.776Z" fill="#FF5D56"/>
<path d="M130.215 82.4206L72.3565 52.1958C70.574 51.2644 68.3732 51.9494 67.4418 53.7329L38.1358 109.831C37.2044 111.616 37.8952 113.817 39.6787 114.75L97.5381 144.974C99.3206 145.906 101.524 145.216 102.456 143.432L131.762 87.3325C132.692 85.55 131.999 83.352 130.215 82.4206" fill="white"/>
<path d="M120.803 40.557C121.808 41.4314 121.939 42.4768 121.456 43.4622C118.863 48.7499 110.176 46.4495 108.902 41.2565C108.448 39.3967 108.849 35.7031 111.513 35.907C112.919 36.0142 117.527 37.7127 120.803 40.557" fill="white"/>
<path d="M72.1567 45.7886C71.52 45.7886 70.9065 45.1896 71.1529 44.4282C73.659 36.7735 80.3071 23.9247 85.5194 17.0574C85.7262 16.7859 86.0025 16.67 86.275 16.67C86.873 16.67 87.4498 17.2303 87.2199 17.9453C84.7765 25.4841 78.2424 38.3734 72.9605 45.3731C72.7412 45.6639 72.4465 45.7886 72.1567 45.7886" fill="#FF8A85"/>
<path d="M60.7278 81.3257L76.274 89.4461C76.6672 89.651 77.0875 89.7485 77.502 89.7485C78.4604 89.7485 79.385 89.2287 79.8594 88.3215C80.5386 87.0201 80.0352 85.4154 78.7348 84.7362L63.1886 76.6157C61.8872 75.9385 60.2834 76.4389 59.6032 77.7403C58.924 79.0408 59.4274 80.6455 60.7278 81.3257" fill="#FF746E"/>
<path d="M50.6061 100.704L66.1514 108.824C66.5456 109.029 66.9649 109.127 67.3803 109.127C68.3378 109.127 69.2624 108.608 69.7368 107.699C70.416 106.399 69.9126 104.794 68.6122 104.114L53.0659 95.9937C51.7655 95.3164 50.1617 95.8179 49.4815 97.1183C48.8014 98.4197 49.3057 100.024 50.6061 100.704" fill="#FF746E"/>
<path d="M103.032 78.7574L118.578 86.8797C118.971 87.0845 119.392 87.1821 119.807 87.1821C120.764 87.1821 121.689 86.6623 122.163 85.7551C122.843 84.4537 122.339 82.849 121.039 82.1698L105.493 74.0474C104.19 73.3701 102.587 73.8716 101.907 75.172C101.228 76.4734 101.732 78.0782 103.032 78.7574" fill="#FF746E"/>
<path d="M92.9094 98.1362L108.456 106.257C108.849 106.462 109.268 106.56 109.684 106.56C110.641 106.56 111.566 106.04 112.04 105.132C112.72 103.832 112.216 102.226 110.915 101.547L95.3702 93.4263C94.0688 92.749 92.465 93.2495 91.7848 94.5509C91.1056 95.8523 91.609 97.457 92.9094 98.1362" fill="#FF746E"/>
<path d="M100.793 120.925L85.2467 112.805C83.9453 112.127 82.3415 112.628 81.6613 113.929C80.9821 115.23 81.4855 116.835 82.7859 117.515L98.3321 125.635C98.7253 125.84 99.1456 125.938 99.5601 125.938C100.519 125.938 101.443 125.418 101.917 124.511C102.597 123.209 102.093 121.605 100.793 120.925Z" fill="#FF746E"/>
<path d="M101.084 160.889C100.715 160.889 100.336 160.801 99.9743 160.617L25.4054 121.694C24.6393 121.278 24.1958 120.52 24.1958 119.733C24.1958 119.687 24.1967 119.642 24.1996 119.596C24.2141 119.305 24.2914 119.025 24.4364 118.749L24.6895 118.263C26.1368 117.64 27.8836 117.27 29.9096 117.27C33.0041 117.27 36.7508 118.131 41.0801 120.259C47.7765 123.55 37.8136 119.11 76.6468 138.893C80.2022 140.702 84.2368 142.504 88.3226 142.504C89.5013 142.504 90.6848 142.355 91.8635 142.011L97.5377 144.975C97.5444 144.979 97.5522 144.982 97.5599 144.986C97.5628 144.988 97.5667 144.99 97.5696 144.992C97.5725 144.993 97.5763 144.995 97.5792 144.997C98.1048 145.263 98.6652 145.389 99.2188 145.389C99.2197 145.389 99.2197 145.389 99.2207 145.389C99.2236 145.389 99.2265 145.389 99.2284 145.389C100.54 145.387 101.806 144.675 102.455 143.433L131.761 87.3327C132.041 86.7965 132.174 86.2226 132.175 85.6574C132.176 84.3425 131.462 83.072 130.215 82.4208L128.947 81.759C137.397 66.3471 146.648 52.7051 156.707 47.743L158.454 48.656C158.677 48.772 158.87 48.9266 159.017 49.086C159.437 49.514 159.666 50.0898 159.667 50.6675C159.667 51.0038 159.589 51.34 159.428 51.6491L102.974 159.776C102.593 160.496 101.864 160.889 101.084 160.889" fill="#E15049"/>
<path d="M97.5795 144.997C97.5766 144.995 97.5727 144.993 97.5698 144.992C97.5727 144.993 97.5766 144.995 97.5795 144.997ZM97.5379 144.974L91.8628 142.01C91.8638 142.01 91.8637 142.01 91.8637 142.01L97.5379 144.974ZM132.175 85.6571C132.176 84.3422 131.462 83.0717 130.215 82.4205C131.462 83.0717 132.176 84.3422 132.175 85.6571Z" fill="#BEBAE0"/>
<path d="M99.2206 145.389C99.2196 145.389 99.2196 145.389 99.2187 145.389C98.6709 145.389 98.1153 145.265 97.5946 145.005C98.1163 145.265 98.6728 145.389 99.2206 145.389C100.536 145.39 101.805 144.677 102.455 143.432L131.761 87.3325C132.041 86.7963 132.174 86.2224 132.175 85.6572C132.174 86.2224 132.041 86.7963 131.761 87.3325L102.455 143.433C101.806 144.675 100.54 145.387 99.2283 145.389C99.2264 145.389 99.2235 145.389 99.2206 145.389ZM97.5618 144.987C97.5608 144.987 97.5598 144.987 97.5598 144.986C97.5521 144.982 97.5444 144.979 97.5376 144.974C97.5453 144.979 97.554 144.983 97.5618 144.987V144.987ZM130.215 82.4207L128.947 81.7588L130.215 82.4207Z" fill="#11ACD0"/>
<path d="M99.2209 145.389C98.6731 145.389 98.1166 145.265 97.5949 145.005C97.5833 144.999 97.5727 144.993 97.5621 144.987C97.5544 144.983 97.5457 144.979 97.5379 144.974L91.8638 142.01C92.8347 141.731 93.8038 141.312 94.7583 140.741C104.144 135.151 115.536 106.234 128.947 81.7588L130.215 82.4207C131.462 83.0718 132.176 84.3423 132.175 85.6572C132.174 86.2224 132.041 86.7963 131.762 87.3325L102.456 143.432C101.805 144.677 100.536 145.39 99.2209 145.389" fill="#CACED7"/>
<path d="M99.2204 145.389C99.2233 145.389 99.2262 145.389 99.2281 145.389C99.2262 145.389 99.2233 145.389 99.2204 145.389ZM99.2184 145.389C98.6648 145.389 98.1045 145.262 97.5789 144.997C97.5837 144.999 97.5885 145.002 97.5943 145.005C98.1151 145.265 98.6706 145.389 99.2184 145.389ZM97.5692 144.992C97.5663 144.99 97.5625 144.988 97.5596 144.986C97.5596 144.987 97.5605 144.987 97.5615 144.987C97.5644 144.989 97.5663 144.99 97.5692 144.992ZM102.455 143.433L131.761 87.3325C132.04 86.7963 132.174 86.2224 132.175 85.6572C132.174 86.2224 132.04 86.7963 131.761 87.3325L102.455 143.433Z" fill="#0891D4"/>
<path d="M97.5949 145.004C97.5891 145.001 97.5843 144.998 97.5795 144.996C97.5766 144.995 97.5727 144.993 97.5698 144.992C97.5669 144.99 97.565 144.989 97.5621 144.987C97.5727 144.993 97.5833 144.998 97.5949 145.004V145.004ZM97.5379 144.974L91.8638 142.01L97.5379 144.974Z" fill="#9A9AC8"/>
<path d="M96.395 34.6171C99.4683 33.4712 103.59 35.4982 105.273 38.1473C106.938 40.7704 105.194 43.7577 101.008 42.9133C95.2742 41.7578 92.4087 36.103 96.395 34.6171" fill="#BB7290"/>
<path d="M130.909 52.6458C130.093 49.4691 126.075 47.2431 122.939 47.3764C119.835 47.5078 118.38 50.6459 121.463 53.5984C125.687 57.6446 131.966 56.7673 130.909 52.6458" fill="#BB7290"/>
<path d="M60.8747 149.961C60.4033 150.677 59.6806 151.167 58.841 151.339C57.101 151.7 55.4044 150.574 55.0499 148.839C54.8769 148 55.0421 147.144 55.5146 146.426C55.9861 145.711 56.7077 145.221 57.5483 145.049C57.7657 145.004 57.9812 144.983 58.1947 144.983C59.6864 144.983 61.0284 146.03 61.3395 147.549C61.5124 148.388 61.3472 149.246 60.8747 149.961ZM60.7791 144.274C59.7328 143.584 58.4816 143.343 57.2498 143.595C54.7136 144.117 53.0741 146.603 53.5958 149.139C54.0518 151.357 56.0112 152.89 58.1937 152.89C58.5048 152.89 58.8217 152.859 59.1396 152.793H59.1405C60.3675 152.541 61.4245 151.824 62.1153 150.778C62.8051 149.73 63.0457 148.477 62.7935 147.25C62.5413 146.02 61.8255 144.964 60.7791 144.274" fill="#305081"/>
<path d="M92.9917 56.8249L93.0107 56.8252L93.0295 56.8276C94.0639 56.9588 94.8384 56.463 95.5057 55.6654C96.018 55.053 96.43 54.3098 96.8246 53.5979C96.9544 53.3638 97.0823 53.1331 97.2113 52.9115C97.776 51.8888 98.2895 50.8376 98.8031 49.7854L98.813 49.7651C99.2687 48.8314 99.7249 47.8967 100.213 46.9922L98.4561 46.1042C97.072 48.5726 95.8116 51.1026 94.6274 53.4863L94.6197 53.5017L94.6106 53.5162C94.4029 53.8482 94.1101 54.1787 93.7546 54.3559C93.5724 54.4466 93.3653 54.501 93.1439 54.4838C92.9271 54.4669 92.72 54.383 92.531 54.2359C91.9935 53.8968 91.9273 53.3022 91.9873 52.8155C92.0402 52.3864 92.1986 51.946 92.3372 51.6102C92.038 51.4016 91.6868 51.1851 91.3384 50.9952C91.0108 50.8166 90.6987 50.6687 90.443 50.5724C90.0298 51.32 89.6359 52.2377 89.4793 53.1253C89.3056 54.1101 89.4335 54.986 90.0534 55.5906C90.8781 56.2748 91.9576 56.8066 92.9917 56.8249Z" fill="white" stroke="#FF5D56" stroke-width="0.7"/>
<path d="M101.435 52.0373L101.442 52.0289L101.449 52.021C101.87 51.5764 102.393 51.3059 102.986 51.1956L102.986 51.1956L102.991 51.1947C103.545 51.1003 104.25 51.2164 104.7 51.7488L104.706 51.7569L104.713 51.7654C105.183 52.3961 105.177 53.2223 104.877 53.9285L104.877 53.9286L104.872 53.9399C104.786 54.1245 104.686 54.3552 104.605 54.5443C104.565 54.6384 104.53 54.7213 104.505 54.7821C104.502 54.7895 104.499 54.7972 104.495 54.805C104.479 54.8444 104.462 54.8856 104.453 54.9034L104.453 54.9034L103.909 56.0212L103.909 56.0213L103.905 56.0301L103.498 56.8088L103.498 56.8088L103.497 56.8108C103.483 56.8379 103.421 56.9446 103.333 57.098C103.248 57.2465 103.137 57.4389 103.019 57.6451L103.015 57.6526L103.011 57.6598C102.873 57.8754 102.78 58.0417 102.706 58.1771C102.696 58.1969 102.685 58.2166 102.674 58.2362C102.616 58.344 102.56 58.4474 102.501 58.5356C102.333 58.7856 102.136 58.9214 101.77 59.0945L101.758 59.1005L101.744 59.1055C101.099 59.3494 100.393 59.2192 99.86 58.8833C99.3271 58.5476 98.916 57.9719 98.9327 57.2798L98.9334 57.2499L98.9392 57.2206C99.0272 56.7743 99.1885 56.3422 99.3559 55.9322C99.4037 55.8151 99.4515 55.7006 99.4987 55.5878C99.6208 55.2959 99.7383 55.0151 99.8378 54.7276L99.8432 54.7118L99.8502 54.6965C100.281 53.7528 100.795 52.8046 101.435 52.0373ZM97.6222 56.4459L97.6222 56.446L97.62 56.4505C97.3087 57.0835 97.0797 57.6825 97.1039 58.2848L97.1046 58.3015L97.1037 58.3183C97.0567 59.1648 97.64 59.7078 98.4894 60.2554C99.0709 60.6181 99.6622 60.8858 100.302 61.0113L100.302 61.0112L100.31 61.0131C101.037 61.1745 101.718 61.1937 102.251 60.9307C102.9 60.5399 103.452 59.8944 103.88 59.1895L103.88 59.1895L103.885 59.182L104.21 58.6756C104.535 58.1492 104.817 57.6187 105.105 57.0733C105.121 57.0415 105.138 57.0096 105.155 56.9777C105.425 56.4652 105.702 55.9392 106.02 55.4059C106.31 54.8886 106.58 54.3721 106.802 53.8338C106.927 53.4799 107.024 53.1455 107.046 52.7979L107.047 52.7838L107.049 52.7697C107.103 52.393 107.063 51.998 106.923 51.619C106.239 50.1655 104.395 49.1448 102.714 49.0948C102.579 49.0993 102.455 49.1266 102.305 49.1728C101.367 49.5439 100.699 50.3952 100.19 51.332L100.186 51.3397L100.181 51.3471C99.3969 52.6331 98.7641 53.9951 98.1259 55.3689C97.9593 55.7275 97.7923 56.0869 97.6222 56.4459Z" fill="white" stroke="#FF5D56" stroke-width="0.7"/>
<path d="M108.051 59.4809L108.257 59.2522L108.51 59.4262C108.635 59.5125 108.767 59.5893 108.913 59.6743C108.973 59.7096 109.036 59.7463 109.102 59.7856C109.313 59.9118 109.542 60.0587 109.742 60.2462C110.058 60.5224 110.275 60.9966 110.267 61.4271L110.267 61.4431L110.265 61.459C110.237 61.7197 110.161 62.0071 110.027 62.2643C109.893 62.5204 109.689 62.7696 109.393 62.9107L109.384 62.9149L109.375 62.9185C108.902 63.1127 108.44 63.022 108.053 62.8715C107.785 62.7673 107.511 62.6145 107.28 62.486C107.192 62.4369 107.11 62.3913 107.038 62.3533L106.967 62.3162L106.919 62.2519L106.894 62.2181L106.838 62.1437L106.827 62.0517C106.77 61.5818 106.981 61.0606 107.221 60.6327C107.469 60.1884 107.792 59.7699 108.051 59.4809ZM110.166 55.2961L110.253 55.0833L110.482 55.078C110.778 55.0712 111.072 55.1815 111.321 55.3117C111.577 55.4451 111.822 55.6189 112.028 55.7806L112.035 55.7859L112.041 55.7915C112.404 56.106 112.642 56.5203 112.643 57.0696V57.0704C112.643 57.3965 112.501 57.6533 112.335 57.8428C112.175 58.0263 111.979 58.1627 111.833 58.2576C111.368 58.5778 110.858 58.5331 110.429 58.3832C110.006 58.2353 109.606 57.9672 109.306 57.7591L109.11 57.6233L109.164 57.3912C109.277 56.9098 109.49 56.4957 109.69 56.1492C109.753 56.0399 109.812 55.941 109.867 55.8498C109.996 55.6337 110.099 55.4608 110.166 55.2961ZM104.219 62.939L104.219 62.939L104.225 62.9422C104.519 63.1067 104.827 63.2904 105.14 63.4778C105.158 63.4887 105.177 63.4997 105.195 63.5107C105.492 63.6884 105.794 63.8692 106.101 64.0444C106.754 64.4173 107.415 64.7552 108.06 64.9682C108.705 65.1813 109.311 65.2613 109.864 65.1446C110.408 65.0299 110.935 64.7177 111.42 64.0788L111.42 64.0787L111.424 64.0744C112.275 62.989 112.083 62.0372 111.848 60.8699C111.841 60.8387 111.835 60.8073 111.829 60.7758C111.828 60.7739 111.828 60.772 111.827 60.77C111.808 60.6911 111.775 60.5533 111.799 60.4158C111.832 60.2283 111.951 60.1076 112.074 60.0254L112.074 60.0252L112.086 60.0179C112.873 59.5365 113.639 58.8716 114.072 58.0417L114.072 58.0415C114.516 57.1908 114.614 56.4593 114.495 55.8336C114.376 55.2048 114.032 54.6449 113.528 54.1537C112.568 53.2179 111.072 52.5756 109.686 52.2426C108.897 53.8109 108.082 55.3423 107.273 56.8659C107.143 57.1099 107.013 57.3537 106.884 57.5975C105.952 59.3528 105.031 61.1053 104.16 62.9086C104.178 62.918 104.198 62.9283 104.219 62.939Z" fill="white" stroke="#FF5D56" stroke-width="0.7"/>
<mask id="path-24-inside-1_316_753" fill="white">
<path d="M116.295 63.554C117.109 64.2071 118.313 65.0215 117.901 66.1258C117.373 67.7683 115.024 66.5007 115.663 65.0805C114.925 64.7153 113.996 64.0863 113.174 63.8013L113.149 63.8506L113.124 63.8979C111.919 65.8891 113.341 68.1799 115.213 69.2185C116.516 69.9624 118.102 70.0474 119.314 68.9895C120.417 68.1412 121.13 66.7393 120.875 65.3693C120.726 64.1143 120.044 62.9327 118.961 62.2033C118.54 61.9009 118.179 61.5666 118.272 60.956C118.331 60.8005 118.375 60.6372 118.5 60.5174C119.313 59.3957 121.191 60.9338 120.314 61.9811C120.966 62.5898 121.907 62.9994 122.737 63.267L122.753 63.2757C123.908 61.8159 123.794 60.4159 123.035 59.3397C122.243 58.3271 120.813 57.3938 119.53 57.2808C117.007 57.0557 114.478 59.4894 115.48 62.4274C115.653 62.8477 115.9 63.2448 116.295 63.554"/>
</mask>
<path d="M116.295 63.554C117.109 64.2071 118.313 65.0215 117.901 66.1258C117.373 67.7683 115.024 66.5007 115.663 65.0805C114.925 64.7153 113.996 64.0863 113.174 63.8013L113.149 63.8506L113.124 63.8979C111.919 65.8891 113.341 68.1799 115.213 69.2185C116.516 69.9624 118.102 70.0474 119.314 68.9895C120.417 68.1412 121.13 66.7393 120.875 65.3693C120.726 64.1143 120.044 62.9327 118.961 62.2033C118.54 61.9009 118.179 61.5666 118.272 60.956C118.331 60.8005 118.375 60.6372 118.5 60.5174C119.313 59.3957 121.191 60.9338 120.314 61.9811C120.966 62.5898 121.907 62.9994 122.737 63.267L122.753 63.2757C123.908 61.8159 123.794 60.4159 123.035 59.3397C122.243 58.3271 120.813 57.3938 119.53 57.2808C117.007 57.0557 114.478 59.4894 115.48 62.4274C115.653 62.8477 115.9 63.2448 116.295 63.554" fill="white"/>
<path d="M117.901 66.1258L117.234 65.9118L117.239 65.8962L117.245 65.8809L117.901 66.1258ZM115.663 65.0805L115.974 64.4531L116.579 64.7524L116.301 65.3679L115.663 65.0805ZM113.174 63.8013L112.551 63.4836L112.827 62.94L113.404 63.14L113.174 63.8013ZM113.149 63.8506L113.773 64.1683L113.767 64.1789L113.149 63.8506ZM113.124 63.8979L113.742 64.2263L113.733 64.2435L113.723 64.2603L113.124 63.8979ZM115.213 69.2185L115.553 68.6064L115.56 68.6105L115.213 69.2185ZM119.314 68.9895L118.854 68.462L118.87 68.4479L118.887 68.4347L119.314 68.9895ZM120.875 65.3693L120.187 65.497L120.183 65.4748L120.18 65.4523L120.875 65.3693ZM118.961 62.2033L118.569 62.7839L118.56 62.7778L118.552 62.7715L118.961 62.2033ZM118.272 60.956L117.58 60.8509L117.591 60.7775L117.617 60.708L118.272 60.956ZM118.5 60.5174L119.066 60.9283L119.03 60.9788L118.985 61.022L118.5 60.5174ZM120.314 61.9811L119.836 62.4928L119.352 62.0402L119.778 61.5316L120.314 61.9811ZM122.737 63.267L122.952 62.6008L123.019 62.6224L123.08 62.6569L122.737 63.267ZM122.753 63.2757L123.302 63.7102L122.93 64.1789L122.409 63.8858L122.753 63.2757ZM123.035 59.3397L123.586 58.9086L123.597 58.9221L123.607 58.9361L123.035 59.3397ZM119.53 57.2808L119.468 57.9781L119.467 57.978L119.53 57.2808ZM115.48 62.4274L114.833 62.6938L114.825 62.6739L114.818 62.6536L115.48 62.4274ZM116.733 63.0079C117.097 63.2999 117.686 63.7293 118.097 64.2237C118.529 64.7453 118.886 65.4875 118.556 66.3708L117.245 65.8809C117.328 65.6599 117.289 65.4428 117.019 65.1177C116.727 64.7655 116.307 64.4612 115.857 64.1001L116.733 63.0079ZM118.567 66.3399C118.376 66.9365 117.979 67.3553 117.45 67.5226C116.951 67.6802 116.437 67.5825 116.029 67.3767C115.244 66.981 114.5 65.9579 115.025 64.793L116.301 65.3679C116.232 65.5222 116.244 65.6529 116.301 65.7746C116.366 65.912 116.497 66.0446 116.659 66.1266C116.825 66.21 116.957 66.2099 117.028 66.1877C117.067 66.1751 117.162 66.1364 117.234 65.9118L118.567 66.3399ZM115.353 65.7079C114.963 65.5151 114.509 65.2456 114.109 65.022C113.685 64.7853 113.293 64.5834 112.945 64.4626L113.404 63.14C113.877 63.3042 114.361 63.5593 114.791 63.7996C115.245 64.053 115.625 64.2806 115.974 64.4531L115.353 65.7079ZM113.798 64.119L113.773 64.1683L112.525 63.5329L112.551 63.4836L113.798 64.119ZM113.767 64.1789L113.742 64.2263L112.506 63.5696L112.531 63.5222L113.767 64.1789ZM113.723 64.2603C113.263 65.0201 113.289 65.8394 113.651 66.6222C114.02 67.4224 114.73 68.1501 115.553 68.6064L114.873 69.8305C113.824 69.2482 112.888 68.3113 112.379 67.2086C111.863 66.0886 111.78 64.7669 112.525 63.5355L113.723 64.2603ZM115.56 68.6105C116.682 69.251 117.926 69.2713 118.854 68.462L119.774 69.5169C118.277 70.8236 116.351 70.6738 114.866 69.8264L115.56 68.6105ZM118.887 68.4347C119.835 67.7052 120.382 66.5477 120.187 65.497L121.564 65.2417C121.877 66.931 120.998 68.5772 119.741 69.5443L118.887 68.4347ZM120.18 65.4523C120.053 64.3892 119.475 63.3939 118.569 62.7839L119.352 61.6227C120.612 62.4716 121.398 63.8394 121.57 65.2864L120.18 65.4523ZM118.552 62.7715C118.332 62.6135 118.047 62.3928 117.841 62.0824C117.615 61.7426 117.507 61.3314 117.58 60.8509L118.964 61.0611C118.944 61.1912 118.97 61.2524 119.007 61.308C119.063 61.3931 119.169 61.4907 119.369 61.6351L118.552 62.7715ZM117.617 60.708C117.64 60.6466 117.745 60.2722 118.015 60.0127L118.985 61.022C119.009 60.9988 119.012 60.9836 118.999 61.0119C118.992 61.0268 118.984 61.0473 118.971 61.0809C118.965 61.098 118.959 61.1144 118.951 61.1359C118.944 61.1561 118.936 61.1796 118.926 61.204L117.617 60.708ZM117.933 60.1064C118.273 59.6372 118.76 59.4206 119.257 59.4256C119.724 59.4304 120.156 59.6276 120.482 59.8927C120.809 60.1583 121.088 60.5396 121.196 60.9902C121.309 61.4655 121.221 61.9883 120.851 62.4306L119.778 61.5316C119.846 61.4502 119.852 61.388 119.834 61.3154C119.811 61.2182 119.734 61.0886 119.599 60.979C119.464 60.8689 119.329 60.8264 119.243 60.8256C119.186 60.825 119.133 60.8367 119.066 60.9283L117.933 60.1064ZM120.792 61.4693C121.33 61.9718 122.153 62.3431 122.952 62.6008L122.522 63.9332C121.662 63.6557 120.602 63.2077 119.836 62.4928L120.792 61.4693ZM123.08 62.6569L123.096 62.6656L122.409 63.8858L122.394 63.8771L123.08 62.6569ZM122.204 62.8413C122.705 62.2078 122.897 61.6337 122.912 61.1418C122.928 60.6488 122.768 60.1765 122.463 59.7432L123.607 58.9361C124.06 59.5791 124.338 60.3449 124.311 61.1859C124.285 62.028 123.956 62.8838 123.302 63.7102L122.204 62.8413ZM122.483 59.7707C121.78 58.871 120.513 58.0701 119.468 57.9781L119.591 56.5835C121.113 56.7175 122.707 57.7833 123.586 58.9086L122.483 59.7707ZM119.467 57.978C118.445 57.8868 117.397 58.3371 116.712 59.1267C116.041 59.8996 115.728 60.9847 116.143 62.2013L114.818 62.6536C114.23 60.9322 114.68 59.3313 115.654 58.2091C116.614 57.1037 118.092 56.4497 119.592 56.5836L119.467 57.978ZM116.128 62.1611C116.271 62.5081 116.455 62.7904 116.726 63.0027L115.864 64.1053C115.345 63.6992 115.036 63.1873 114.833 62.6938L116.128 62.1611Z" fill="#FF5D56" mask="url(#path-24-inside-1_316_753)"/>
<path d="M70.5617 61.5103L86.107 69.6317C86.5011 69.8365 86.9205 69.9351 87.3359 69.9351C88.2934 69.9351 89.2179 69.4153 89.6923 68.5071C90.3725 67.2057 89.8682 65.6009 88.5677 64.9217L73.0225 56.8003C71.7221 56.124 70.1173 56.6235 69.4371 57.9249C68.7569 59.2263 69.2613 60.8311 70.5617 61.5103" fill="#FF746E"/>
<path d="M98.7925 72.0827C98.4282 71.8933 97.9809 72.0324 97.7896 72.3967L69.5338 126.487C69.3435 126.851 69.4855 127.299 69.8487 127.488C69.9579 127.545 70.0748 127.573 70.1907 127.573C70.4574 127.573 70.7164 127.427 70.8497 127.175L99.1065 73.0846C99.2958 72.7213 99.1557 72.2721 98.7925 72.0827" fill="#578DE0"/>
<path d="M67.3152 65.4103L90.0659 77.2949C90.177 77.3519 90.2929 77.3799 90.4089 77.3799C90.6765 77.3799 90.9354 77.234 91.0668 76.9809C91.2581 76.6186 91.1161 76.1693 90.7538 75.979L68.003 64.0944C67.6378 63.9051 67.1925 64.0442 67.0012 64.4084C66.8118 64.7717 66.9528 65.221 67.3152 65.4103" fill="#578DE0"/>
<path d="M65.3979 69.0812L88.1486 80.9657C88.2578 81.0218 88.3747 81.0488 88.4906 81.0488C88.7592 81.0488 89.0162 80.9049 89.1496 80.6508C89.3399 80.2875 89.1988 79.8392 88.8356 79.6489L66.0858 67.7644C65.7215 67.575 65.2742 67.716 65.0839 68.0793C64.8945 68.4426 65.0346 68.8909 65.3979 69.0812" fill="#578DE0"/>
<path d="M47.0692 104.167L69.819 116.051C69.9302 116.109 70.0461 116.136 70.162 116.136C70.4296 116.136 70.6886 115.99 70.82 115.738C71.0113 115.375 70.8693 114.925 70.507 114.736L47.7571 102.851C47.391 102.662 46.9456 102.802 46.7552 103.165C46.5659 103.529 46.706 103.977 47.0692 104.167" fill="#578DE0"/>
<path d="M68.5895 118.406L45.8406 106.522C45.4754 106.332 45.0281 106.472 44.8387 106.836C44.6494 107.199 44.7895 107.648 45.1527 107.838L67.9025 119.722C68.0117 119.779 68.1286 119.807 68.2445 119.807C68.5121 119.807 68.7701 119.662 68.9035 119.409C69.0938 119.046 68.9527 118.597 68.5895 118.406Z" fill="#578DE0"/>
<path d="M122.934 92.791L100.185 80.9055C99.8196 80.718 99.3723 80.8562 99.1829 81.2195C98.9926 81.5827 99.1336 82.032 99.4969 82.2214L122.246 94.1059C122.356 94.1639 122.473 94.1909 122.589 94.1909C122.856 94.1909 123.114 94.046 123.248 93.7929C123.437 93.4296 123.297 92.9803 122.934 92.791" fill="#578DE0"/>
<path d="M121.017 96.4614L98.2676 84.5769C97.9043 84.3885 97.4561 84.5276 97.2657 84.8908C97.0754 85.2541 97.2174 85.7034 97.5807 85.8927L120.329 97.7773C120.44 97.8343 120.557 97.8613 120.672 97.8613C120.939 97.8613 121.198 97.7164 121.331 97.4633C121.521 97.1 121.38 96.6508 121.017 96.4614Z" fill="#578DE0"/>
<path d="M112.81 112.168L90.0606 100.285C89.6973 100.095 89.25 100.234 89.0597 100.599C88.8693 100.962 89.0114 101.411 89.3746 101.6L112.122 113.485C112.234 113.541 112.35 113.569 112.466 113.569C112.733 113.569 112.992 113.424 113.125 113.171C113.315 112.808 113.174 112.358 112.81 112.168" fill="#578DE0"/>
<path d="M110.894 115.839L88.1429 103.955C87.7806 103.766 87.3322 103.906 87.1419 104.269C86.9516 104.632 87.0926 105.08 87.4559 105.271L110.206 117.156C110.316 117.212 110.433 117.239 110.55 117.239C110.816 117.239 111.074 117.095 111.208 116.841C111.397 116.478 111.257 116.03 110.894 115.839" fill="#578DE0"/>
<path d="M102.688 131.547L79.9372 119.662C79.574 119.474 79.1257 119.613 78.9363 119.976C78.746 120.339 78.8871 120.788 79.2503 120.979L102 132.863C102.11 132.92 102.227 132.946 102.343 132.946C102.611 132.946 102.869 132.803 103.002 132.549C103.191 132.185 103.051 131.736 102.688 131.547" fill="#578DE0"/>
<path d="M100.771 135.217L78.0211 123.333C77.6578 123.144 77.2105 123.283 77.0192 123.647C76.8288 124.01 76.9709 124.459 77.3332 124.648L100.084 136.533C100.194 136.59 100.311 136.617 100.427 136.617C100.694 136.617 100.952 136.473 101.086 136.219C101.275 135.856 101.134 135.408 100.771 135.217Z" fill="#578DE0"/>
<path d="M108.405 32.5467C108.6 30.6608 107.342 29.1294 105.794 28.7256C103.145 28.0348 101.021 30.967 102.173 33.3206C103.603 36.247 108.06 35.8664 108.405 32.5467" fill="#162844"/>
<path d="M128.664 47.158C131.253 46.759 132.446 43.3408 130.366 41.5612C129.15 40.5206 127.175 40.3622 125.737 41.6008C123.21 43.7785 125.443 47.6556 128.664 47.158Z" fill="#162844"/>
<path d="M33.1816 74.4902L52.3934 85.1235L43.9754 70.1841L33.1816 74.4902Z" fill="#7BAFFD"/>
<path d="M0 44.1812L76.8287 55.4387C77.6538 55.5595 77.7871 56.6937 77.0123 57.0029L22.3449 78.8145C21.3856 79.1981 20.29 78.8213 19.7683 77.9305L0 44.1812" fill="#7BAFFD"/>
<path d="M0 44.1813L43.976 70.1841L52.3939 85.1235L61.0835 63.3583L0 44.1813Z" fill="#6494DC"/>
<path d="M23.2663 72.2871C23.0866 72.2871 22.9011 72.2243 22.7359 72.0784C18.9235 68.6892 13.9208 61.7378 11.9257 57.1737C11.6803 56.6143 12.1277 56.0994 12.6262 56.0994C12.7962 56.0994 12.9711 56.1593 13.1276 56.2965C16.8453 59.5756 21.9475 66.4613 24.017 71.1442C24.2779 71.7374 23.7967 72.2871 23.2663 72.2871" fill="#8AB9FF"/>
<path d="M70.7425 89.4445C64.8645 82.5554 55.4036 81.812 55.0036 81.7835C54.7649 81.7664 54.5408 81.9549 54.5232 82.2062C54.505 82.457 54.6927 82.6745 54.9414 82.6917C55.0353 82.6988 64.4251 83.4345 70.0603 90.039C73.2806 93.8117 74.6784 98.7753 74.2145 104.792C74.1957 105.043 74.381 105.261 74.6291 105.281L74.6649 105.283C74.8978 105.283 75.0949 105.102 75.1131 104.862C75.5958 98.5957 74.1253 93.4074 70.7425 89.4445Z" fill="#A6494F"/>
<path d="M55.0489 84.6094C54.8003 84.5672 54.5688 84.7331 54.5281 84.9752C54.4873 85.2174 54.6544 85.4457 54.9012 85.485C55.0453 85.5082 69.2399 87.9572 68.6364 102C68.6258 102.245 68.8206 102.452 69.0704 102.463L69.0905 102.463C69.332 102.463 69.5327 102.276 69.5428 102.038C70.1787 87.2179 55.2 84.6331 55.0489 84.6094" fill="#A6494F"/>
</svg>
