<svg width="24" height="24" viewBox="0 0 24 24" fill="none" xmlns="http://www.w3.org/2000/svg">
<path d="M23.5596 8.54347C23.2853 8.23562 22.9105 8.0354 22.5021 7.97855V7.9777L16.1237 7.09659L13.5996 1.06529C13.231 0.182475 12.2166 -0.2344 11.3338 0.134164C10.913 0.309883 10.5784 0.644447 10.4027 1.06529L7.8786 7.09659L1.50018 7.9777C0.549874 8.10997 -0.113279 8.98767 0.0190001 9.93798C0.0758489 10.3464 0.276075 10.7212 0.583923 10.9955L5.38961 15.2809L4.40219 22.0055C4.29522 22.6884 4.60884 23.3687 5.19757 23.7309C5.77801 24.102 6.52463 24.0882 7.09085 23.6957L12.0011 20.3565L16.9113 23.6991C17.7037 24.2369 18.7819 24.0305 19.3197 23.2382C19.5641 22.8781 19.6642 22.4393 19.6001 22.009L18.6127 15.2817L23.4184 10.9963C24.1347 10.358 24.198 9.25981 23.5596 8.54347ZM17.1265 14.3132C16.9115 14.5053 16.8075 14.7926 16.8496 15.0778L17.8781 22.2773L12.4854 18.6107C12.1946 18.4131 11.8127 18.4131 11.522 18.6107L6.09751 22.255L7.15258 15.0744C7.19355 14.7903 7.0896 14.5046 6.87571 14.3133L1.7332 9.67814L8.59675 8.73104C8.89726 8.68961 9.15343 8.4924 9.2704 8.21252L12.0113 1.71413C12.0145 1.71795 12.0168 1.72232 12.0182 1.72699L14.7309 8.20911C14.8479 8.48898 15.1041 8.6862 15.4045 8.72763L22.2767 9.71671L17.1265 14.3132Z" fill="#B5BBC4"/>
</svg>
