<svg width="638" height="631" viewBox="0 0 638 631" fill="none" xmlns="http://www.w3.org/2000/svg">
<mask id="mask0_346_142" style="mask-type:alpha" maskUnits="userSpaceOnUse" x="0" y="0" width="638" height="631">
<rect width="638" height="631" fill="#D9D9D9"/>
</mask>
<g mask="url(#mask0_346_142)">
<path d="M321.209 558.233C465.972 558.233 583.326 440.879 583.326 296.116C583.326 151.353 465.972 34 321.209 34C176.447 34 59.0931 151.353 59.0931 296.116C59.0931 440.879 176.447 558.233 321.209 558.233Z" fill="white"/>
<mask id="mask1_346_142" style="mask-type:alpha" maskUnits="userSpaceOnUse" x="-35" y="34" width="794" height="578">
<path fill-rule="evenodd" clip-rule="evenodd" d="M-35 323V612H361.535H758.07V323V34H361.535H-35V323ZM306.792 126.03C306.505 133.204 305.882 139.58 305.407 140.201C304.933 140.822 304.053 143.035 303.453 145.118C300.31 156.008 279.479 176.177 271.374 176.177C270.832 176.177 270.388 176.567 270.388 177.044C270.388 177.52 269.438 178.208 268.274 178.574C259.728 181.253 239.495 200.74 231.381 214.103C230.858 214.965 229.721 216.715 228.853 217.994C217.11 235.296 209.905 276.503 213.338 306.738L214.076 313.243H184.561H155.046L154.282 306.273C152.656 291.461 154.206 254.62 156.686 249.124C157.147 248.102 157.807 244.966 158.151 242.154C158.497 239.343 159.102 236.625 159.496 236.114C159.89 235.604 160.5 233.208 160.855 230.793C161.208 228.377 161.848 226.186 162.275 225.924C162.704 225.662 163.329 223.998 163.665 222.225C164.003 220.452 164.893 217.834 165.645 216.406C166.398 214.98 167.016 213.322 167.02 212.726C167.023 212.127 167.625 210.455 168.357 209.009C169.089 207.561 170.941 203.869 172.474 200.803C176.192 193.363 178.658 188.825 179.291 188.259C179.576 188.002 180.832 186.12 182.081 184.076C183.329 182.031 184.687 179.941 185.098 179.429C185.51 178.918 187.412 176.41 189.324 173.853C199.563 160.175 219.031 142.907 231.86 136.129C234.184 134.9 236.298 133.674 236.558 133.401C237.059 132.876 247.033 128.086 252.535 125.726C254.344 124.952 258.784 123.374 262.401 122.22C266.018 121.068 269.825 119.807 270.857 119.422C275.96 117.512 298.032 113.318 304.121 113.101L307.314 112.987L306.792 126.03ZM489.281 309.757C488.785 341.624 488.38 346.371 485.588 353.201C485.172 354.223 484.095 357.15 483.199 359.706C477.162 376.918 463.983 398.231 450.332 412.864C442.013 421.783 422.632 437.299 419.815 437.299C419.413 437.299 418.637 437.831 418.092 438.482C416.321 440.591 392.02 452.167 389.362 452.167C388.588 452.167 387.717 452.549 387.427 453.015C387.134 453.481 385.209 454.146 383.147 454.491C381.085 454.835 379.189 455.449 378.935 455.857C378.681 456.264 376.074 456.893 373.142 457.255C370.209 457.618 367.137 458.275 366.316 458.717C358.683 462.826 293.227 462.802 284.013 458.687C282.979 458.226 280.232 457.568 277.905 457.226C275.58 456.884 273.254 456.28 272.738 455.885C272.22 455.488 270.003 454.873 267.809 454.515C265.615 454.156 263.583 453.481 263.29 453.015C262.999 452.549 262.045 452.153 261.171 452.136C260.298 452.118 257.891 451.296 255.824 450.309C253.757 449.321 251.325 448.5 250.42 448.481C249.517 448.464 248.776 448.032 248.776 447.521C248.776 447.009 248.248 446.59 247.602 446.587C246.033 446.582 234.3 440.591 229.236 437.211C227.011 435.726 225.003 434.511 224.776 434.511C222.359 434.511 196.537 410.964 190.979 403.693C190.458 403.01 188.66 400.718 186.986 398.601C185.311 396.483 183.94 394.517 183.94 394.234C183.94 393.949 182.719 391.919 181.227 389.721C179.735 387.524 176.805 382.484 174.713 378.523L170.912 371.322H203.822H236.73L245.807 380.437C268.817 403.548 294.288 413.324 331.936 413.499C350.539 413.585 356.275 412.809 370.462 408.289C405.351 397.172 434.281 364.588 442.327 327.348C442.788 325.213 443.628 321.641 444.193 319.412C445.954 312.471 448.852 312.874 395.039 312.577L346.971 312.314L341.922 309.566C339.145 308.057 334.916 304.862 332.525 302.468C328.768 298.705 327.165 296.216 322.914 287.536C322.497 286.687 321.871 283.864 321.521 281.264L320.887 276.537L405.343 276.536H489.798L489.281 309.757Z" fill="black"/>
</mask>
<g mask="url(#mask1_346_142)">
<path d="M583.326 296.116C583.326 151.353 465.972 34 321.209 34C176.447 34 59.0931 151.353 59.0931 296.116C59.0931 440.879 176.447 558.233 321.209 558.233C465.972 558.233 583.326 440.879 583.326 296.116Z" fill="#FF5D56"/>
</g>
</g>
</svg>
