<svg width="195" height="53" viewBox="0 0 195 53" fill="none" xmlns="http://www.w3.org/2000/svg">
<path d="M83.48 27.4C85.16 27.4 86 28.24 86 29.92V41.6C85.3067 41.92 84.52 42.2 83.64 42.44C82.76 42.68 81.7333 42.88 80.56 43.04C79.4133 43.2267 78.0933 43.32 76.6 43.32C75.48 43.32 74.2667 43.16 72.96 42.84C71.68 42.52 70.48 41.88 69.36 40.92C68.2667 39.9333 67.3467 38.5467 66.6 36.76C65.8533 34.9467 65.48 32.5733 65.48 29.64C65.48 26.7067 65.8533 24.3467 66.6 22.56C67.3467 20.7733 68.28 19.4 69.4 18.44C70.52 17.48 71.7333 16.84 73.04 16.52C74.3467 16.2 75.5467 16.04 76.64 16.04C77.9733 16.04 79.16 16.1333 80.2 16.32C81.2667 16.5067 82.2 16.7333 83 17C83.8267 17.24 84.5733 17.52 85.24 17.84V20.32C85.24 21.0133 85.0667 21.4667 84.72 21.68C84.3733 21.8933 83.8133 21.84 83.04 21.52C81.4667 20.9867 80.16 20.6533 79.12 20.52C78.1067 20.36 77.28 20.28 76.64 20.28C75.36 20.28 74.2933 20.5467 73.44 21.08C72.5867 21.5867 71.8933 22.2667 71.36 23.12C70.8533 23.9733 70.4933 24.9733 70.28 26.12C70.0667 27.24 69.96 28.4133 69.96 29.64C69.96 32.6267 70.5733 34.9067 71.8 36.48C73.0533 38.0267 74.9867 38.8 77.6 38.8C78.4533 38.8 79.1867 38.7733 79.8 38.72C80.4133 38.6667 80.9867 38.56 81.52 38.4V31.88H77.48C76.36 31.88 75.8 31.2933 75.8 30.12V27.4H83.48ZM104.932 31.4C104.932 32.44 104.772 33.3067 104.452 34C104.159 34.6933 103.746 35.2267 103.212 35.6C102.679 35.9733 102.039 36.24 101.292 36.4C100.546 36.56 99.7189 36.64 98.8122 36.64H94.1322C94.3455 37.6533 94.8255 38.36 95.5722 38.76C96.3189 39.1333 97.1855 39.32 98.1722 39.32C99.0255 39.32 99.7055 39.24 100.212 39.08C100.719 38.92 101.319 38.7067 102.012 38.44C102.546 38.28 102.946 38.32 103.212 38.56C103.506 38.7733 103.652 39.1333 103.652 39.64V42C103.092 42.24 102.519 42.4533 101.932 42.64C101.372 42.8 100.759 42.9333 100.092 43.04C99.4255 43.1733 98.7455 43.24 98.0522 43.24C97.2789 43.24 96.3989 43.1467 95.4122 42.96C94.4522 42.7467 93.5322 42.3467 92.6522 41.76C91.7989 41.1733 91.0655 40.3333 90.4522 39.24C89.8655 38.1467 89.5722 36.6667 89.5722 34.8C89.5722 32.5333 89.8789 30.8 90.4922 29.6C91.1055 28.3733 91.8389 27.44 92.6922 26.8C93.5722 26.16 94.4789 25.7467 95.4122 25.56C96.3722 25.3733 97.1855 25.28 97.8522 25.28C98.5722 25.28 99.3455 25.3867 100.172 25.6C100.999 25.8133 101.759 26.16 102.452 26.64C103.172 27.12 103.759 27.76 104.212 28.56C104.692 29.3333 104.932 30.28 104.932 31.4ZM97.6922 32.88C98.9455 32.88 99.8122 32.8 100.292 32.64C100.772 32.4533 101.012 32.08 101.012 31.52C101.012 30.72 100.719 30.1067 100.132 29.68C99.5722 29.2267 98.8255 29 97.8922 29C97.2255 29 96.6522 29.1067 96.1722 29.32C95.6922 29.5333 95.2922 29.8267 94.9722 30.2C94.6522 30.5467 94.3989 30.9333 94.2122 31.36C94.0255 31.76 93.8922 32.2667 93.8122 32.88H97.6922ZM125.726 16.36V19.12C125.726 20.2667 125.206 20.84 124.166 20.84H118.206V43H113.726V20.84H106.206V17.92C106.206 16.88 106.753 16.36 107.846 16.36H125.726ZM136.23 25.56C138.63 25.56 140.377 26.08 141.47 27.12C142.564 28.1333 143.11 29.5867 143.11 31.48V41.44C143.11 42.48 142.617 43 141.63 43H138.63V31.4C138.63 30.0667 137.83 29.4 136.23 29.4C135.537 29.4 134.87 29.4667 134.23 29.6C133.617 29.7067 133.044 29.8667 132.51 30.08V41.36C132.51 42.4533 132.044 43 131.11 43H128.03V16.44H130.75C131.924 16.44 132.51 17.0267 132.51 18.2V26.2C133.097 25.9867 133.71 25.8267 134.35 25.72C135.017 25.6133 135.644 25.56 136.23 25.56ZM161.885 31.4C161.885 32.44 161.725 33.3067 161.405 34C161.112 34.6933 160.699 35.2267 160.165 35.6C159.632 35.9733 158.992 36.24 158.245 36.4C157.499 36.56 156.672 36.64 155.765 36.64H151.085C151.299 37.6533 151.779 38.36 152.525 38.76C153.272 39.1333 154.139 39.32 155.125 39.32C155.979 39.32 156.659 39.24 157.165 39.08C157.672 38.92 158.272 38.7067 158.965 38.44C159.499 38.28 159.899 38.32 160.165 38.56C160.459 38.7733 160.605 39.1333 160.605 39.64V42C160.045 42.24 159.472 42.4533 158.885 42.64C158.325 42.8 157.712 42.9333 157.045 43.04C156.379 43.1733 155.699 43.24 155.005 43.24C154.232 43.24 153.352 43.1467 152.365 42.96C151.405 42.7467 150.485 42.3467 149.605 41.76C148.752 41.1733 148.019 40.3333 147.405 39.24C146.819 38.1467 146.525 36.6667 146.525 34.8C146.525 32.5333 146.832 30.8 147.445 29.6C148.059 28.3733 148.792 27.44 149.645 26.8C150.525 26.16 151.432 25.7467 152.365 25.56C153.325 25.3733 154.139 25.28 154.805 25.28C155.525 25.28 156.299 25.3867 157.125 25.6C157.952 25.8133 158.712 26.16 159.405 26.64C160.125 27.12 160.712 27.76 161.165 28.56C161.645 29.3333 161.885 30.28 161.885 31.4ZM154.645 32.88C155.899 32.88 156.765 32.8 157.245 32.64C157.725 32.4533 157.965 32.08 157.965 31.52C157.965 30.72 157.672 30.1067 157.085 29.68C156.525 29.2267 155.779 29 154.845 29C154.179 29 153.605 29.1067 153.125 29.32C152.645 29.5333 152.245 29.8267 151.925 30.2C151.605 30.5467 151.352 30.9333 151.165 31.36C150.979 31.76 150.845 32.2667 150.765 32.88H154.645ZM184.882 25.56C186.882 25.56 188.495 26.04 189.722 27C190.949 27.9333 191.562 29.4533 191.562 31.56V41.28C191.562 42.4267 191.002 43 189.882 43H187.082V31.6C187.082 30.1867 186.349 29.4533 184.882 29.4C184.109 29.4 183.389 29.48 182.722 29.64C182.055 29.8 181.455 29.9867 180.922 30.2C180.975 30.44 181.002 30.7067 181.002 31C181.002 31.2667 181.002 31.4667 181.002 31.6V41.36C181.002 42.4533 180.482 43 179.442 43H176.522V31.4C176.469 30.76 176.242 30.28 175.842 29.96C175.469 29.6133 174.935 29.4267 174.242 29.4C173.469 29.4 172.762 29.4533 172.122 29.56C171.482 29.64 170.895 29.7733 170.362 29.96V41.2C170.362 42.4 169.842 43 168.802 43H165.882V27.76C166.682 27.36 167.509 27.0133 168.362 26.72C169.215 26.4 170.135 26.1333 171.122 25.92C172.135 25.68 173.175 25.56 174.242 25.56C175.255 25.56 176.202 25.6933 177.082 25.96C177.962 26.2 178.709 26.5467 179.322 27C180.202 26.5467 181.135 26.2 182.122 25.96C183.109 25.6933 184.029 25.56 184.882 25.56Z" fill="white"/>
<circle cx="26.5" cy="29.5" r="19.5" fill="white"/>
<mask id="mask0_7_266" style="mask-type:alpha" maskUnits="userSpaceOnUse" x="0" y="10" width="59" height="43">
<path fill-rule="evenodd" clip-rule="evenodd" d="M0 31.5V53H29.5H59V31.5V10H29.5H0V31.5ZM25.4274 16.8465C25.4061 17.3802 25.3597 17.8546 25.3244 17.9008C25.2891 17.947 25.2237 18.1116 25.179 18.2666C24.9452 19.0767 23.3955 20.5772 22.7925 20.5772C22.7522 20.5772 22.7192 20.6062 22.7192 20.6417C22.7192 20.6771 22.6485 20.7283 22.5619 20.7555C21.9261 20.9548 20.4209 22.4045 19.8173 23.3987C19.7784 23.4628 19.6938 23.593 19.6292 23.6881C18.7556 24.9753 18.2196 28.0409 18.475 30.2902L18.5299 30.7741H16.3341H14.1384L14.0815 30.2556C13.9606 29.1537 14.0759 26.4129 14.2604 26.004C14.2947 25.928 14.3438 25.6947 14.3694 25.4855C14.3951 25.2764 14.4401 25.0742 14.4694 25.0362C14.4987 24.9982 14.5441 24.82 14.5705 24.6403C14.5968 24.4606 14.6444 24.2976 14.6762 24.2781C14.7081 24.2586 14.7546 24.1348 14.7796 24.0029C14.8047 23.871 14.8709 23.6762 14.9269 23.57C14.9829 23.4639 15.0289 23.3406 15.0292 23.2962C15.0294 23.2517 15.0742 23.1273 15.1286 23.0197C15.1831 22.912 15.3209 22.6373 15.4349 22.4092C15.7115 21.8557 15.895 21.5181 15.9421 21.476C15.9633 21.4569 16.0567 21.3169 16.1496 21.1648C16.2425 21.0127 16.3435 20.8572 16.3741 20.8191C16.4047 20.7811 16.5462 20.5945 16.6885 20.4043C17.4502 19.3867 18.8985 18.1021 19.8529 17.5978C20.0258 17.5064 20.1831 17.4152 20.2024 17.3949C20.2397 17.3558 20.9817 16.9995 21.391 16.8239C21.5256 16.7663 21.8559 16.6489 22.125 16.5631C22.3941 16.4774 22.6773 16.3836 22.7541 16.3549C23.1337 16.2128 24.7757 15.9008 25.2287 15.8847L25.4663 15.8762L25.4274 16.8465ZM39.0036 30.5148C38.9667 32.8855 38.9366 33.2387 38.7289 33.7468C38.6979 33.8228 38.6178 34.0406 38.5511 34.2307C38.102 35.5112 37.1216 37.0968 36.106 38.1854C35.4871 38.8489 34.0453 40.0032 33.8357 40.0032C33.8058 40.0032 33.7481 40.0428 33.7075 40.0912C33.5758 40.2481 31.7679 41.1093 31.5702 41.1093C31.5126 41.1093 31.4478 41.1377 31.4262 41.1724C31.4044 41.2071 31.2612 41.2565 31.1078 41.2822C30.9544 41.3078 30.8134 41.3535 30.7945 41.3838C30.7756 41.4141 30.5816 41.4609 30.3635 41.4878C30.1453 41.5148 29.9168 41.5637 29.8557 41.5966C29.2878 41.9023 24.4183 41.9005 23.7328 41.5944C23.6559 41.5601 23.4515 41.5111 23.2784 41.4857C23.1054 41.4602 22.9324 41.4153 22.894 41.3859C22.8555 41.3564 22.6905 41.3106 22.5273 41.284C22.3641 41.2573 22.2129 41.2071 22.1911 41.1724C22.1695 41.1377 22.0985 41.1083 22.0335 41.107C21.9685 41.1057 21.7895 41.0445 21.6357 40.9711C21.4819 40.8976 21.301 40.8365 21.2337 40.8351C21.1665 40.8338 21.1114 40.8017 21.1114 40.7637C21.1114 40.7256 21.0721 40.6944 21.024 40.6942C20.9073 40.6938 20.0344 40.2481 19.6577 39.9967C19.4922 39.8862 19.3428 39.7958 19.3259 39.7958C19.1461 39.7958 17.2251 38.044 16.8116 37.5031C16.7728 37.4523 16.6391 37.2818 16.5145 37.1243C16.3899 36.9667 16.2879 36.8205 16.2879 36.7994C16.2879 36.7782 16.1971 36.6272 16.0861 36.4637C15.9751 36.3002 15.7571 35.9253 15.6015 35.6306L15.3187 35.0949H17.767H20.2152L20.8905 35.773C22.6023 37.4923 24.4972 38.2196 27.298 38.2326C28.682 38.239 29.1087 38.1813 30.1641 37.845C32.7597 37.018 34.9119 34.5939 35.5105 31.8235C35.5448 31.6646 35.6073 31.3989 35.6493 31.2331C35.7803 30.7167 35.9959 30.7467 31.9925 30.7246L28.4165 30.705L28.0409 30.5006C27.8343 30.3883 27.5197 30.1506 27.3418 29.9725C27.0623 29.6926 26.9431 29.5074 26.6268 28.8617C26.5958 28.7985 26.5492 28.5885 26.5232 28.3951L26.476 28.0434L32.7591 28.0433H39.0421L39.0036 30.5148Z" fill="black"/>
</mask>
<g mask="url(#mask0_7_266)">
<rect x="7" y="10" width="39" height="39" rx="19.5" fill="#FF5D56"/>
</g>
</svg>
